<svg width="270" height="270" viewBox="0 0 270 270" fill="none" xmlns="http://www.w3.org/2000/svg">
<circle cx="135" cy="135" r="135" fill="#474747"/>
<path d="M118.759 238.015C118.111 237.801 117.597 237.37 117.217 236.722C116.837 236.073 116.699 235.381 116.805 234.644C116.895 234.015 117.143 233.468 117.548 233.005C117.94 232.552 118.467 232.221 119.127 232.013C119.785 231.816 120.524 231.776 121.344 231.893L126.298 232.602L124.526 244.986L119.804 244.311C118.961 244.19 118.256 243.944 117.691 243.572C117.126 243.2 116.724 242.749 116.485 242.217C116.244 241.698 116.166 241.141 116.251 240.547C116.353 239.835 116.628 239.268 117.076 238.847C117.524 238.426 118.085 238.149 118.759 238.015ZM123.239 239.492L120.727 239.133C120.061 239.038 119.523 239.112 119.113 239.357C118.688 239.611 118.435 240.023 118.354 240.594C118.274 241.152 118.402 241.613 118.738 241.976C119.06 242.349 119.554 242.584 120.219 242.679L122.732 243.038L123.239 239.492ZM121.285 233.576C120.596 233.478 120.032 233.566 119.592 233.843C119.153 234.12 118.89 234.555 118.805 235.149C118.719 235.755 118.858 236.265 119.223 236.681C119.587 237.097 120.114 237.354 120.803 237.453L123.476 237.835L124.029 233.969L121.285 233.576Z" fill="#FAFAF8"/>
<path d="M104.553 239.278L105.654 235.775L101.533 234.48L102.035 232.883L106.156 234.178L107.305 230.52L102.669 229.063L103.171 227.466L109.765 229.538L106.009 241.49L99.4148 239.418L99.9167 237.821L104.553 239.278Z" fill="#FAFAF8"/>
<path d="M83.6441 228.401C83.6454 229.104 83.8303 229.726 84.1987 230.268C84.5616 230.82 85.0789 231.27 85.7505 231.617C86.486 231.997 87.2271 232.171 87.9735 232.138C88.72 232.105 89.4155 231.87 90.06 231.434C90.6939 230.991 91.2174 230.37 91.6307 229.571C92.0439 228.771 92.2505 227.98 92.2502 227.196C92.2338 226.418 92.0232 225.714 91.6184 225.086C91.2135 224.458 90.6433 223.954 89.9078 223.574C88.9164 223.062 87.9683 222.923 87.0635 223.158C86.1586 223.392 85.3918 223.948 84.7628 224.825L88.9363 226.983L88.1841 228.438L82.0599 225.272L82.7954 223.849C83.359 223.046 84.0786 222.412 84.9544 221.946C85.8194 221.474 86.7646 221.227 87.7901 221.203C88.7993 221.184 89.789 221.426 90.7591 221.927C91.8038 222.467 92.6339 223.2 93.2494 224.126C93.8594 225.063 94.1971 226.095 94.2625 227.223C94.3172 228.346 94.0636 229.45 93.5016 230.538C92.9395 231.625 92.1849 232.471 91.2375 233.076C90.2795 233.675 89.2448 233.991 88.1334 234.024C87.0058 234.063 85.925 233.815 84.8909 233.28C83.7077 232.669 82.8091 231.833 82.1954 230.773C81.5655 229.718 81.3182 228.55 81.4534 227.269L83.6441 228.401Z" fill="#FAFAF8"/>
<path d="M70.5077 224.177L77.8195 214.026L79.4845 215.225L72.1727 225.376L70.5077 224.177Z" fill="#FAFAF8"/>
<path d="M64.2359 202.136L65.7143 203.559L63.6836 214.571L70.1623 207.841L71.6407 209.264L62.9524 218.29L61.474 216.867L63.4923 205.867L57.026 212.585L55.5476 211.162L64.2359 202.136Z" fill="#FAFAF8"/>
<path d="M53.316 188.081L54.5112 189.749L50.5134 200.208L58.1072 194.767L59.3024 196.435L49.1188 203.732L47.9236 202.064L51.9068 191.615L44.3276 197.046L43.1324 195.377L53.316 188.081Z" fill="#FAFAF8"/>
<path d="M38.9001 184.453L42.1997 182.842L40.3042 178.96L41.8084 178.225L43.704 182.107L47.1492 180.425L45.0166 176.058L46.5209 175.323L49.5538 181.534L38.2963 187.031L35.2634 180.82L36.7676 180.086L38.9001 184.453Z" fill="#FAFAF8"/>
<path d="M41.6607 161.767L37.6969 165.965L38.1474 167.465L42.9398 166.025L43.5302 167.991L31.5492 171.59L30.3063 167.453C30.0301 166.533 29.9579 165.709 30.0898 164.98C30.2183 164.24 30.506 163.634 30.9529 163.161C31.3964 162.677 31.9514 162.335 32.618 162.135C33.3995 161.9 34.181 161.916 34.9627 162.182C35.7295 162.44 36.3693 163.006 36.8823 163.88L40.9563 159.423L41.6607 161.767ZM36.5787 167.936L35.9262 165.764C35.7052 165.029 35.3556 164.532 34.8773 164.275C34.3956 164.006 33.8445 163.965 33.2239 164.152C32.6033 164.338 32.1758 164.667 31.9415 165.138C31.6958 165.613 31.6851 166.224 31.9095 166.971L32.562 169.143L36.5787 167.936Z" fill="#FAFAF8"/>
<path d="M35.4948 134.387L35.5613 139.624L38.1285 140.492L38.1557 142.634L25.5718 138.311L25.5416 135.935L38.0117 131.295L38.0391 133.455L35.4948 134.387ZM33.8282 134.984L28.0405 137.092L33.8801 139.07L33.8282 134.984Z" fill="#FAFAF8"/>
<path d="M40.3452 113.973L39.9981 115.995L29.7461 120.5L38.9535 122.08L38.6063 124.103L26.2589 121.983L26.6061 119.961L36.8402 115.453L27.6507 113.876L27.9979 111.853L40.3452 113.973Z" fill="#FAFAF8"/>
<path d="M31.9631 98.5332C32.4232 97.2832 33.0675 96.28 33.8958 95.5236C34.717 94.7517 35.6713 94.2783 36.7587 94.1031C37.8391 93.9126 38.9761 94.0371 40.1698 94.4765C41.3634 94.9159 42.3041 95.5563 42.9918 96.3976C43.6836 97.2277 44.0919 98.2028 44.2167 99.3229C44.3343 100.428 44.1631 101.605 43.7029 102.855L42.2914 106.689L30.5516 102.368L31.9631 98.5332ZM42.132 102.277C42.6377 100.903 42.6537 99.7129 42.1799 98.7074C41.7061 97.7018 40.7936 96.9503 39.4422 96.4528C38.0796 95.9512 36.8807 95.9255 35.8455 96.3755C34.8103 96.8256 34.0398 97.7376 33.534 99.1115L32.8314 101.02L41.4293 104.185L42.132 102.277Z" fill="#FAFAF8"/>
<path d="M56.5424 74.1289L53.4272 78.3398L54.9467 80.5835L53.6728 82.3055L46.2669 71.2515L47.68 69.3413L60.4171 73.189L59.1325 74.9255L56.5424 74.1289ZM54.8541 73.5964L48.9704 71.7737L52.424 76.8812L54.8541 73.5964Z" fill="#FAFAF8"/>
<path d="M59.6896 55.8894C60.6632 54.9803 61.6901 54.3745 62.7702 54.0719C63.8509 53.7523 64.9162 53.7591 65.9661 54.0923C67.0165 54.4084 67.9758 55.0314 68.8439 55.9611C69.712 56.8908 70.2638 57.8861 70.4991 58.9469C70.7432 59.9996 70.6689 61.0541 70.2761 62.1104C69.8839 63.1498 69.201 64.124 68.2274 65.033L65.2409 67.8216L56.7031 58.678L59.6896 55.8894ZM67.085 63.8095C68.155 62.8104 68.7048 61.7552 68.7344 60.644C68.764 59.5328 68.2874 58.4509 67.3046 57.3984C66.3137 56.3371 65.2547 55.7744 64.1277 55.7103C63.0007 55.6463 61.9022 56.1138 60.8321 57.1129L59.3454 58.5011L65.5983 65.1977L67.085 63.8095Z" fill="#FAFAF8"/>
<path d="M81.0609 39.8376L83.836 52.9094L81.8336 54.1884L71.1249 46.1843L72.9756 45.0022L81.7011 51.7741L79.2406 41.0004L81.0609 39.8376Z" fill="#FAFAF8"/>
<path d="M100.093 41.9823L95.2399 43.953L95.3677 46.6598L93.3831 47.4657L92.8224 34.1719L95.0238 33.278L103.89 43.1993L101.889 44.0119L100.093 41.9823ZM98.9296 40.648L94.8576 36.0264L95.1438 42.1853L98.9296 40.648Z" fill="#FAFAF8"/>
<path d="M120.871 39.0596L118.861 39.4733L110.93 31.568L112.814 40.7181L110.804 41.1319L108.278 28.8611L110.288 28.4474L118.215 36.3351L116.335 27.2026L118.345 26.7889L120.871 39.0596Z" fill="#FAFAF8"/>
<path d="M127.577 31.9194C127.559 30.6956 127.824 29.5934 128.373 28.6129C128.934 27.6323 129.697 26.8646 130.66 26.3098C131.636 25.7429 132.705 25.4506 133.869 25.4329C135.201 25.4126 136.388 25.7246 137.43 26.3688C138.484 27.0008 139.254 27.9132 139.74 29.1059L137.274 29.1435C136.94 28.4885 136.483 28.0034 135.902 27.6882C135.321 27.373 134.653 27.2212 133.897 27.2327C133.069 27.2453 132.334 27.4425 131.691 27.8243C131.049 28.2061 130.547 28.7478 130.186 29.4494C129.837 30.1508 129.669 30.9635 129.683 31.8874C129.697 32.8112 129.889 33.6184 130.26 34.3089C130.642 34.9991 131.161 35.5313 131.814 35.9054C132.468 36.2675 133.209 36.4422 134.037 36.4296C134.793 36.4181 135.456 36.246 136.027 35.9132C136.598 35.5805 137.04 35.0817 137.354 34.4168L139.82 34.3793C139.37 35.5863 138.629 36.5217 137.595 37.1855C136.573 37.8492 135.396 38.1911 134.064 38.2114C132.888 38.2293 131.81 37.9757 130.83 37.4505C129.85 36.9134 129.064 36.1633 128.473 35.2002C127.895 34.2369 127.596 33.1433 127.577 31.9194Z" fill="#FAFAF8"/>
<path d="M150.875 28.3259L150.3 31.9525L154.567 32.6294L154.304 34.2827L150.038 33.6058L149.437 37.3925L154.237 38.154L153.975 39.8073L147.148 38.7243L149.111 26.351L155.938 27.434L155.675 29.0874L150.875 28.3259Z" fill="#FAFAF8"/>
<path d="M173.096 38.6632C173.608 37.5513 174.323 36.6718 175.242 36.0247C176.172 35.3826 177.191 35.0195 178.3 34.9355C179.424 34.8455 180.515 35.0439 181.573 35.5306C182.783 36.0875 183.719 36.8816 184.38 37.9126C185.057 38.9378 185.358 40.0932 185.281 41.379L183.041 40.3479C183.023 39.6128 182.82 38.9778 182.432 38.4426C182.044 37.9074 181.507 37.4818 180.82 37.1657C180.068 36.8194 179.32 36.6798 178.576 36.7468C177.832 36.8137 177.145 37.0855 176.516 37.5622C175.898 38.0439 175.396 38.7045 175.009 39.5438C174.623 40.3831 174.448 41.1942 174.484 41.977C174.531 42.7647 174.768 43.4685 175.196 44.0883C175.629 44.6972 176.222 45.1747 176.974 45.5209C177.661 45.8371 178.334 45.9684 178.992 45.9149C179.651 45.8615 180.265 45.6027 180.836 45.1387L183.076 46.1698C182.149 47.0642 181.076 47.5874 179.857 47.7395C178.648 47.8966 177.439 47.6967 176.229 47.1397C175.161 46.6479 174.298 45.9536 173.641 45.0566C172.989 44.1488 172.604 43.1329 172.487 42.0091C172.382 40.8904 172.585 39.775 173.096 38.6632Z" fill="#FAFAF8"/>
<path d="M192.396 56.5967C191.455 55.9116 190.746 55.0611 190.268 54.0454C189.808 53.027 189.63 51.9554 189.737 50.8306C189.86 49.7032 190.282 48.6447 191.002 47.6552C191.723 46.6657 192.597 45.944 193.625 45.4902C194.663 45.0435 195.734 44.8879 196.837 45.0235C197.958 45.1564 198.988 45.5655 199.929 46.2506C200.88 46.9428 201.586 47.7981 202.047 48.8165C202.524 49.8322 202.705 50.899 202.589 52.0167C202.473 53.1345 202.054 54.1881 201.334 55.1776C200.614 56.1671 199.736 56.8936 198.701 57.3571C197.673 57.8109 196.598 57.9714 195.478 57.8384C194.374 57.7028 193.347 57.2889 192.396 56.5967ZM193.445 55.1561C194.115 55.6435 194.821 55.9275 195.564 56.0082C196.313 56.0792 197.039 55.9393 197.739 55.5886C198.457 55.2352 199.088 54.685 199.631 53.938C200.175 53.191 200.502 52.4267 200.611 51.6451C200.729 50.8705 200.636 50.1422 200.331 49.46C200.026 48.7779 199.539 48.1931 198.87 47.7058C198.201 47.2184 197.494 46.9344 196.752 46.8537C196.009 46.773 195.282 46.9045 194.572 47.2482C193.871 47.5989 193.249 48.1478 192.705 48.8948C192.161 49.6418 191.826 50.4074 191.701 51.1916C191.592 51.9733 191.686 52.71 191.984 53.4019C192.289 54.084 192.776 54.6688 193.445 55.1561Z" fill="#FAFAF8"/>
<path d="M213.905 58.4092L208.063 63.8364C207.369 64.4816 207.013 65.1478 206.996 65.835C206.987 66.5309 207.285 67.2042 207.89 67.8548C208.502 68.5142 209.152 68.8607 209.838 68.8945C210.533 68.9371 211.228 68.6357 211.922 67.9905L217.764 62.5633L219.161 64.0667L213.345 69.4694C212.598 70.1636 211.814 70.589 210.993 70.7456C210.172 70.9022 209.381 70.8263 208.62 70.5181C207.858 70.2099 207.171 69.7261 206.559 69.0667C205.946 68.4073 205.514 67.6866 205.263 66.9047C205.02 66.1316 205.01 65.3458 205.235 64.5474C205.46 63.749 205.946 63.0027 206.693 62.3085L212.509 56.9058L213.905 58.4092Z" fill="#FAFAF8"/>
<path d="M218.452 84.4163L221.106 79.2888L220.26 77.9712L216.05 80.6756L214.941 78.949L225.466 72.1881L227.801 75.8229C228.32 76.6306 228.616 77.4029 228.69 78.1398C228.771 78.8868 228.661 79.549 228.362 80.1265C228.069 80.714 227.629 81.1958 227.044 81.572C226.357 82.0129 225.602 82.2131 224.777 82.1724C223.969 82.1353 223.198 81.7677 222.464 81.0695L219.775 86.476L218.452 84.4163ZM221.638 77.0859L222.864 78.9942C223.279 79.6404 223.752 80.0213 224.282 80.1368C224.819 80.2625 225.36 80.1502 225.906 79.8C226.451 79.4498 226.771 79.0159 226.867 78.4982C226.972 77.9741 226.814 77.3839 226.392 76.7276L225.167 74.8193L221.638 77.0859Z" fill="#FAFAF8"/>
<path d="M224.956 97.2856C224.627 96.513 224.462 95.7612 224.463 95.0301C224.475 94.2943 224.654 93.6438 225 93.0786C225.346 92.5134 225.85 92.0895 226.512 91.8068L227.374 93.8265C226.897 94.0826 226.571 94.4501 226.397 94.9288C226.227 95.4186 226.277 95.9781 226.546 96.6071C226.824 97.2583 227.195 97.7 227.659 97.9323C228.135 98.1599 228.621 98.1676 229.118 97.9556C229.504 97.7907 229.769 97.5406 229.913 97.2052C230.061 96.8808 230.129 96.5193 230.115 96.1206C230.106 95.733 230.052 95.2082 229.952 94.5463C229.83 93.711 229.767 93.0136 229.763 92.4543C229.775 91.9012 229.926 91.3673 230.215 90.8524C230.504 90.3376 231.007 89.9271 231.725 89.6208C232.387 89.3381 233.037 89.2563 233.675 89.3754C234.313 89.4945 234.891 89.7955 235.411 90.2784C235.93 90.7613 236.357 91.3945 236.691 92.1781C237.167 93.2928 237.274 94.3234 237.013 95.27C236.768 96.223 236.176 96.9454 235.237 97.4372L234.347 95.3513C234.752 95.1392 235.026 94.7874 235.169 94.296C235.311 93.8046 235.255 93.2609 235.001 92.665C234.77 92.1242 234.443 91.7416 234.022 91.5173C233.6 91.2929 233.129 91.2915 232.611 91.5129C232.257 91.6637 232.01 91.8934 231.867 92.202C231.741 92.5169 231.682 92.8682 231.691 93.2559C231.7 93.6435 231.75 94.1572 231.84 94.7971C231.955 95.6481 232.01 96.3557 232.003 96.9198C232 97.4949 231.849 98.0422 231.549 98.5618C231.264 99.0876 230.758 99.5061 230.03 99.817C229.445 100.067 228.825 100.142 228.169 100.044C227.519 99.9561 226.904 99.6771 226.324 99.2067C225.761 98.7427 225.305 98.1023 224.956 97.2856Z" fill="#FAFAF8"/>
<path d="M240.107 107.578L236.545 108.473L237.598 112.662L235.975 113.07L234.922 108.88L231.203 109.815L232.388 114.528L230.764 114.936L229.08 108.232L241.23 105.18L242.915 111.883L241.291 112.291L240.107 107.578Z" fill="#FAFAF8"/>
<path d="M232.394 126.853C232.319 126.016 232.396 125.25 232.623 124.555C232.862 123.859 233.234 123.296 233.737 122.866C234.241 122.435 234.852 122.188 235.569 122.124L235.764 124.312C235.23 124.407 234.806 124.656 234.493 125.057C234.18 125.471 234.054 126.018 234.115 126.699C234.178 127.405 234.394 127.939 234.764 128.304C235.146 128.668 235.605 128.826 236.143 128.778C236.562 128.74 236.891 128.585 237.132 128.31C237.373 128.048 237.549 127.725 237.66 127.341C237.771 126.97 237.882 126.454 237.992 125.794C238.135 124.962 238.291 124.279 238.46 123.746C238.643 123.224 238.951 122.763 239.385 122.363C239.819 121.963 240.425 121.728 241.202 121.659C241.919 121.595 242.562 121.719 243.132 122.029C243.702 122.34 244.159 122.805 244.503 123.425C244.848 124.045 245.058 124.779 245.133 125.628C245.241 126.835 245.024 127.848 244.482 128.668C243.954 129.498 243.167 130.002 242.123 130.179L241.922 127.92C242.373 127.843 242.742 127.594 243.03 127.171C243.317 126.747 243.432 126.213 243.375 125.568C243.323 124.982 243.131 124.517 242.799 124.173C242.467 123.829 242.02 123.682 241.459 123.732C241.076 123.766 240.77 123.908 240.539 124.158C240.321 124.418 240.156 124.734 240.045 125.105C239.933 125.477 239.822 125.98 239.71 126.617C239.556 127.462 239.388 128.151 239.207 128.686C239.027 129.232 238.714 129.705 238.267 130.107C237.834 130.519 237.223 130.76 236.434 130.83C235.801 130.886 235.188 130.766 234.595 130.47C234.004 130.185 233.505 129.729 233.1 129.103C232.708 128.487 232.472 127.737 232.394 126.853Z" fill="#FAFAF8"/>
<path d="M233.31 156.275L234.275 151.127L231.928 149.771L232.323 147.666L243.811 154.379L243.373 156.714L230.234 158.812L230.632 156.689L233.31 156.275ZM235.062 156.017L241.151 155.089L235.814 152.001L235.062 156.017Z" fill="#FAFAF8"/>
<path d="M236.031 180.307L226.048 171.423L226.903 169.207L240.272 169.306L239.482 171.355L228.441 171.073L236.808 178.292L236.031 180.307Z" fill="#FAFAF8"/>
<path d="M219.431 189.86L222.171 185.396L220.464 183.292L221.585 181.466L229.916 191.841L228.673 193.866L215.651 191.13L216.782 189.289L219.431 189.86ZM221.159 190.245L227.177 191.554L223.297 186.763L221.159 190.245Z" fill="#FAFAF8"/>
<path d="M219.498 206.412L209.872 198.422L211.182 196.843L220.808 204.833L219.498 206.412Z" fill="#FAFAF8"/>
<path d="M204.267 206.821L201.204 209.739L200.062 208.54L204.61 204.206L213.24 213.263L211.754 214.679L204.267 206.821Z" fill="#FAFAF8"/>
<path d="M190.293 219.155L194.605 216.181L193.894 213.566L195.657 212.349L199.083 225.206L197.127 226.556L186.323 218.789L188.101 217.562L190.293 219.155ZM191.718 220.206L196.694 223.836L195.081 217.886L191.718 220.206Z" fill="#FAFAF8"/>
<path d="M176.566 230.904C175.904 231.072 175.239 230.986 174.57 230.644C173.901 230.302 173.412 229.792 173.104 229.115C172.841 228.536 172.756 227.942 172.849 227.333C172.935 226.74 173.201 226.178 173.645 225.647C174.094 225.127 174.695 224.695 175.449 224.353L180.005 222.284L185.178 233.674L180.835 235.647C180.06 235.999 179.333 236.171 178.657 236.161C177.981 236.152 177.399 235.988 176.911 235.669C176.429 235.361 176.064 234.934 175.815 234.388C175.518 233.732 175.444 233.106 175.596 232.511C175.747 231.915 176.07 231.379 176.566 230.904ZM181.137 229.737L178.826 230.787C178.214 231.064 177.801 231.417 177.586 231.844C177.365 232.287 177.374 232.77 177.612 233.295C177.846 233.808 178.201 234.128 178.68 234.253C179.153 234.394 179.695 234.326 180.307 234.048L182.618 232.999L181.137 229.737ZM176.305 225.803C175.672 226.091 175.244 226.469 175.022 226.939C174.801 227.409 174.814 227.917 175.062 228.463C175.315 229.02 175.707 229.376 176.239 229.53C176.77 229.684 177.352 229.617 177.986 229.329L180.444 228.213L178.829 224.657L176.305 225.803Z" fill="#FAFAF8"/>
<path d="M162.876 230.722L158.804 231.867L158.356 230.273L164.404 228.573L167.789 240.616L165.814 241.171L162.876 230.722Z" fill="#FAFAF8"/>
<path d="M151.317 242.628L150.834 238.988L146.551 239.556L146.331 237.897L150.613 237.329L150.109 233.528L145.291 234.167L145.071 232.508L151.923 231.598L153.571 244.018L146.719 244.927L146.499 243.267L151.317 242.628Z" fill="#FAFAF8"/>
<path d="M184.997 119.217L176.226 104.783L143.791 122.566V87H126.209V122.566L93.7736 104.783L85 119.217L117.444 137L85.0025 154.783L93.7734 169.217L126.209 151.434V187H143.791V151.434L176.226 169.217L185 154.783L152.556 137L184.997 119.217Z" fill="#FAFAF8"/>
</svg>
