<svg xmlns="http://www.w3.org/2000/svg" width="152" height="28" fill="none" xmlns:v="https://vecta.io/nano"><path d="M18.584 1.872V5.94h-6.696V27h-5.04V5.94H.152V1.872h18.432zm22.217 14.724c0 .72-.048 1.368-.144 1.944h-14.58c.12 1.44.624 2.568 1.512 3.384s1.98 1.224 3.276 1.224c1.872 0 3.204-.804 3.996-2.412h5.436c-.576 1.92-1.68 3.504-3.312 4.752-1.632 1.224-3.636 1.836-6.012 1.836-1.92 0-3.648-.42-5.184-1.26-1.512-.864-2.7-2.076-3.564-3.636-.84-1.56-1.26-3.36-1.26-5.4 0-2.064.42-3.876 1.26-5.436a8.79 8.79 0 0 1 3.528-3.6c1.512-.84 3.252-1.26 5.22-1.26 1.896 0 3.588.408 5.076 1.224a8.44 8.44 0 0 1 3.492 3.492c.84 1.488 1.26 3.204 1.26 5.148zm-5.22-1.44c-.024-1.296-.492-2.328-1.404-3.096-.912-.792-2.028-1.188-3.348-1.188-1.248 0-2.304.384-3.168 1.152-.84.744-1.356 1.788-1.548 3.132h9.468zm7.603 1.872c0-2.064.42-3.864 1.26-5.4.84-1.56 2.004-2.76 3.492-3.6 1.488-.864 3.192-1.296 5.112-1.296 2.472 0 4.512.624 6.12 1.872 1.632 1.224 2.724 2.952 3.276 5.184h-5.436c-.288-.864-.78-1.536-1.476-2.016-.672-.504-1.512-.756-2.52-.756-1.44 0-2.58.528-3.42 1.584-.84 1.032-1.26 2.508-1.26 4.428 0 1.896.42 3.372 1.26 4.428.84 1.032 1.98 1.548 3.42 1.548 2.04 0 3.372-.912 3.996-2.736h5.436c-.552 2.16-1.644 3.876-3.276 5.148s-3.672 1.908-6.12 1.908c-1.92 0-3.624-.42-5.112-1.26a9.16 9.16 0 0 1-3.492-3.6c-.84-1.56-1.26-3.372-1.26-5.436zm34.184-10.26c1.512 0 2.856.336 4.032 1.008 1.176.648 2.088 1.62 2.736 2.916.672 1.272 1.008 2.808 1.008 4.608V27h-5.04V15.984c0-1.584-.396-2.796-1.188-3.636-.792-.864-1.872-1.296-3.24-1.296-1.392 0-2.496.432-3.312 1.296-.792.84-1.188 2.052-1.188 3.636V27h-5.04V.36h5.04v9.18c.648-.864 1.512-1.536 2.592-2.016 1.08-.504 2.28-.756 3.6-.756z" fill="#474747"/><path d="M94.977 23.004h8.28V27h-13.32V1.872h5.04v21.132zm10.188-6.048c0-2.016.396-3.804 1.188-5.364.816-1.56 1.908-2.76 3.276-3.6 1.392-.84 2.94-1.26 4.644-1.26 1.488 0 2.784.3 3.888.9 1.128.6 2.028 1.356 2.7 2.268V7.056h5.076V27h-5.076v-2.916c-.648.936-1.548 1.716-2.7 2.34-1.128.6-2.436.9-3.924.9-1.68 0-3.216-.432-4.608-1.296-1.368-.864-2.46-2.076-3.276-3.636-.792-1.584-1.188-3.396-1.188-5.436zm15.696.072c0-1.224-.24-2.268-.72-3.132-.48-.888-1.128-1.56-1.944-2.016-.816-.48-1.692-.72-2.628-.72s-1.8.228-2.592.684-1.44 1.128-1.944 2.016c-.48.864-.72 1.896-.72 3.096s.24 2.256.72 3.168c.504.888 1.152 1.572 1.944 2.052.816.48 1.68.72 2.592.72a5.3 5.3 0 0 0 2.628-.684c.816-.48 1.464-1.152 1.944-2.016.48-.888.72-1.944.72-3.168zm15.038-7.056c.648-.96 1.536-1.74 2.664-2.34 1.152-.6 2.46-.9 3.924-.9 1.704 0 3.24.42 4.608 1.26 1.392.84 2.484 2.04 3.276 3.6.816 1.536 1.224 3.324 1.224 5.364s-.408 3.852-1.224 5.436c-.792 1.56-1.884 2.772-3.276 3.636-1.368.864-2.904 1.296-4.608 1.296-1.488 0-2.796-.288-3.924-.864-1.104-.6-1.992-1.368-2.664-2.304V27h-5.04V.36h5.04v9.612zm10.548 6.984c0-1.2-.252-2.232-.756-3.096-.48-.888-1.128-1.56-1.944-2.016-.792-.456-1.656-.684-2.592-.684-.912 0-1.776.24-2.592.72-.792.456-1.44 1.128-1.944 2.016-.48.888-.72 1.932-.72 3.132s.24 2.244.72 3.132c.504.888 1.152 1.572 1.944 2.052.816.456 1.68.684 2.592.684.936 0 1.8-.24 2.592-.72.816-.48 1.464-1.164 1.944-2.052.504-.888.756-1.944.756-3.168z" fill="#ff6d5c"/></svg>